#!OML:ASF F:\VICON\USERDATA\INSTALL\rory3\rory3.ASF
:FULLY-SPECIFIED
:DEGREES
1887
root -1.57908 17.6704 -2.47592 18.3959 3.17167 0.343225
lowerback 19.696 -0.404604 -1.63276
upperback 5.79041 -0.605892 3.51575
thorax -4.69254 -0.300539 4.84345
lowerneck -22.761 -1.57222 -10.2124
upperneck 34.274 0.831886 2.97015
head 16.0162 -0.568823 3.22806
rclavicle 1.11319e-014 -2.50469e-014
rhumerus -14.1618 4.344 -57.8535
rradius 109.818
rwrist 28.997
rhand -31.5068 3.80837
rfingers 7.12502
rthumb -4.77247 -26.1179
lclavicle 1.11319e-014 -2.50469e-014
lhumerus -16.0255 3.59727 68.0283
lradius 96.4958
lwrist -14.6689
lhand -30.1105 27.3478
lfingers 7.12502
lthumb -3.42415 57.3001
rfemur -35.0604 -1.94154 8.90281
rtibia 32.5863
rfoot -14.341 -11.3941
rtoes 0.440094
lfemur -34.6142 2.74854 -12.7143
ltibia 30.0334
lfoot -8.61495 4.69543
ltoes -24.193
1888
root -1.58168 17.6727 -2.53725 18.8899 3.4593 0.375972
lowerback 20.6729 -0.521665 -1.41772
upperback 6.12365 -0.71691 3.4911
thorax -4.83384 -0.356162 4.7402
lowerneck -22.9257 -1.61877 -10.2237
upperneck 34.2827 0.750241 3.0708
head 16.0647 -0.589876 3.26044
rclavicle 1.23246e-014 -6.75868e-015
rhumerus -12.7301 4.66274 -57.8136
rradius 108.005
rwrist 28.9626
rhand -30.5412 4.37137
rfingers 7.12502
rthumb -3.84013 -25.5738
lclavicle 1.23246e-014 -6.75868e-015
lhumerus -14.5717 2.92316 68.1853
lradius 94.5574
lwrist -14.124
lhand -29.5673 25.433
lfingers 7.12502
lthumb -2.89962 55.393
rfemur -35.7063 -2.13691 8.90634
rtibia 32.5319
rfoot -14.3096 -11.6234
rtoes 0.784278
lfemur -35.5281 2.70915 -12.7333
ltibia 30.2132
lfoot -8.43505 4.45529
ltoes -24.258
1889
root -1.58592 17.6644 -2.61089 19.7953 3.34404 0.268363
lowerback 21.4094 -0.461401 -1.34645
upperback 6.28095 -0.621312 3.51692
thorax -5.05292 -0.30787 4.72201
lowerneck -22.9696 -1.70236 -10.3121
upperneck 34.2039 0.641406 3.13908
head 16.046 -0.632884 3.28213
rclavicle 1.07344e-014 -5.1684e-015
rhumerus -11.4054 5.14098 -57.618
rradius 106.296
rwrist 28.933
rhand -29.871 4.63302
rfingers 7.12502
rthumb -3.19285 -25.3228
lclavicle 1.07344e-014 -5.1684e-015
lhumerus -13.1308 2.3413 68.3822
lradius 92.5496
lwrist -13.9654
lhand -29.2015 24.9853
lfingers 7.12502
lthumb -2.54635 54.9499
rfemur -37.0413 -2.1636 8.98576
rtibia 32.479
rfoot -13.9658 -11.8046
rtoes 1.1259
lfemur -36.9255 2.97686 -12.699
ltibia 30.4221
lfoot -8.18186 4.41325
ltoes -24.6087
1890
root -1.58317 17.6414 -2.69665 21.5488 2.57382 -0.134651
lowerback 21.1818 -0.177045 -1.34873
upperback 6.27017 -0.257515 3.55014
thorax -4.98038 -0.134007 4.66298
lowerneck -22.9882 -1.76986 -10.4314
upperneck 34.1243 0.549719 3.24888
head 16.019 -0.666855 3.33028
rclavicle 6.75868e-015 -1.23246e-014
rhumerus -10.0538 5.70124 -57.5006
rradius 104.571
rwrist 28.9419
rhand -29.8745 4.7509
rfingers 7.12502
rthumb -3.19621 -25.2049
lclavicle 6.75868e-015 -1.23246e-014
lhumerus -11.7471 1.81465 68.5999
lradius 90.6367
lwrist -13.9487
lhand -28.916 25.111
lfingers 7.12502
lthumb -2.2706 55.0786
rfemur -39.635 -2.0689 9.27044
rtibia 32.4625
rfoot -13.2164 -11.7533
rtoes 1.26454
lfemur -39.2158 3.5994 -12.4957
ltibia 30.6829
lfoot -7.79002 4.89679
ltoes -24.5651
1891
root -1.58644 17.6334 -2.76268 22.4995 2.42308 -0.261938
lowerback 21.6909 -0.104169 -1.33996
upperback 6.47278 -0.161394 3.58318
thorax -5.03084 -0.0899349 4.67831
lowerneck -23.0922 -1.81962 -10.4837
upperneck 34.0516 0.482523 3.32101
head 16.0132 -0.68789 3.35637
rclavicle -1.11319e-014 1.47101e-014
rhumerus -8.62224 6.15534 -57.4202
rradius 102.854
rwrist 29.1186
rhand -29.9085 5.02432
rfingers 7.12502
rthumb -3.22914 -24.931
lclavicle -1.11319e-014 1.47101e-014
lhumerus -10.2729 1.2367 68.7548
lradius 88.7515
lwrist -13.8467
lhand -28.9445 24.827
lfingers 7.12502
lthumb -2.2981 54.7944
rfemur -40.997 -2.13233 9.37762
rtibia 32.4816
rfoot -12.9293 -11.8321
rtoes 1.61997
lfemur -40.6138 3.90195 -12.4822
ltibia 30.9552
lfoot -7.57402 4.88627
ltoes -24.4622
1892
root -1.58733 17.6198 -2.82927 23.3224 2.30794 -0.332109
lowerback 22.3754 -0.046424 -1.27408
upperback 6.6952 -0.0741617 3.58385
thorax -5.14716 -0.0493317 4.63023
lowerneck -23.1993 -1.84433 -10.3726
upperneck 33.9246 0.48463 3.12956
head 15.9782 -0.695083 3.2507
rclavicle 4.37326e-015 -1.35174e-014
rhumerus -7.0351 6.54549 -57.2284
rradius 101.065
rwrist 29.2796
rhand -29.9229 5.22535
rfingers 7.12502
rthumb -3.24301 -24.7297
lclavicle 4.37326e-015 -1.35174e-014
lhumerus -8.75494 0.613101 68.8745
lradius 86.9407
lwrist -13.9545
lhand -29.0594 24.3071
lfingers 7.12502
lthumb -2.40905 54.2733
rfemur -42.2307 -2.18184 9.43164
rtibia 32.5225
rfoot -12.6058 -11.9495
rtoes 1.74208
lfemur -41.8795 4.0948 -12.4824
ltibia 31.2156
lfoot -7.33787 4.90119
ltoes -24.3942
1893
root -1.5874 17.6033 -2.89162 24.0973 2.16945 -0.410616
lowerback 23.1067 -0.00492732 -1.20924
upperback 6.92601 -0.0076189 3.58462
thorax -5.27296 -0.018989 4.58816
lowerneck -23.2423 -1.85157 -10.3834
upperneck 33.6596 0.498055 3.07895
head 15.8581 -0.687511 3.22463
rclavicle 1.07344e-014 -2.18663e-014
rhumerus -5.3314 7.04256 -56.9735
rradius 99.2416
rwrist 29.3487
rhand -30.1578 5.20889
rfingers 7.12502
rthumb -3.46989 -24.7426
lclavicle 1.07344e-014 -2.18663e-014
lhumerus -7.24298 0.0809717 68.9324
lradius 85.1011
lwrist -14.2458
lhand -28.9827 23.7663
lfingers 7.12502
lthumb -2.33503 53.7333
rfemur -43.4309 -2.22942 9.4921
rtibia 32.5973
rfoot -12.2707 -12.0216
rtoes 1.75175
lfemur -43.0389 4.22822 -12.433
ltibia 31.3529
lfoot -7.054 5.00927
ltoes -24.1141
1894
root -1.58648 17.591 -2.95444 25.1264 2.11697 -0.382702
lowerback 23.5683 -0.011045 -1.19907
upperback 7.13519 -0.0150914 3.57682
thorax -5.27642 -0.0257959 4.58244
lowerneck -23.4188 -1.85361 -10.4251
upperneck 33.3885 0.519888 3.10566
head 15.7648 -0.669414 3.24038
rclavicle 1.15295e-014 -3.97569e-015
rhumerus -3.39431 7.49823 -56.7212
rradius 97.2779
rwrist 29.5026
rhand -30.5957 5.18811
rfingers 7.12502
rthumb -3.89269 -24.7561
lclavicle 1.15295e-014 -3.97569e-015
lhumerus -5.62287 -0.469854 68.8995
lradius 83.2089
lwrist -14.2682
lhand -29.1955 23.1501
lfingers 7.12502
lthumb -2.54054 53.1148
rfemur -44.8803 -2.58966 9.53131
rtibia 32.7058
rfoot -11.8701 -11.9794
rtoes 1.47362
lfemur -44.5092 4.35265 -12.5603
ltibia 31.4818
lfoot -6.72544 5.06119
ltoes -23.9041
1895
root -1.58541 17.5787 -3.02195 26.1627 2.1881 -0.390848
lowerback 24.0855 -0.0834517 -1.12529
upperback 7.3354 -0.0862387 3.63634
thorax -5.3102 -0.0628988 4.63331
lowerneck -23.75 -1.80886 -10.4058
upperneck 33.1881 0.694006 2.90046
head 15.7317 -0.618032 3.17877
rclavicle 2.78299e-015 -2.34566e-014
rhumerus -1.41307 8.01744 -56.4137
rradius 95.3745
rwrist 29.7991
rhand -31.0992 5.0496
rfingers 7.12502
rthumb -4.37891 -24.8851
lclavicle 2.78299e-015 -2.34566e-014
lhumerus -3.95008 -1.00053 68.8144
lradius 81.2739
lwrist -13.8177
lhand -29.3358 22.867
lfingers 7.12502
lthumb -2.67603 52.8299
rfemur -46.3018 -3.01512 9.66326
rtibia 32.8059
rfoot -11.4786 -11.9773
rtoes 1.27717
lfemur -46.0387 4.48497 -12.6653
ltibia 31.6326
lfoot -6.3726 5.01451
ltoes -24.0506
1896
root -1.5881 17.5587 -3.08598 27.0795 2.20192 -0.426231
lowerback 24.7061 -0.103972 -1.01685
upperback 7.49238 -0.0838479 3.6519
thorax -5.44801 -0.0620292 4.5988
lowerneck -23.8558 -1.78293 -10.4208
upperneck 33.0045 0.768145 2.84689
head 15.6618 -0.589821 3.16781
rclavicle -2.78299e-015 -1.31198e-014
rhumerus 0.350121 8.49146 -56.0558
rradius 93.4686
rwrist 30.1672
rhand -31.66 4.80101
rfingers 7.12502
rthumb -4.92043 -25.1219
lclavicle -2.78299e-015 -1.31198e-014
lhumerus -2.21788 -1.71137 68.6097
lradius 79.2715
lwrist -13.4925
lhand -29.2984 22.8642
lfingers 7.12502
lthumb -2.63992 52.8276
rfemur -47.5856 -3.20232 9.73381
rtibia 32.8734
rfoot -11.3026 -12.0272
rtoes 1.84903
lfemur -47.4917 4.71593 -12.7694
ltibia 31.927
lfoot -6.1525 4.91432
ltoes -24.134
1897
root -1.59692 17.5359 -3.14724 28.0253 2.10695 -0.546996
lowerback 25.1561 0.0100754 -0.904301
upperback 7.67863 0.08271 3.59853
thorax -5.48115 0.0157175 4.43341
lowerneck -23.9337 -1.89911 -10.4026
upperneck 32.8602 0.514965 3.06892
head 15.6289 -0.653108 3.20752
rclavicle -9.54166e-015 -6.55989e-015
rhumerus 2.05469 8.73429 -55.7174
rradius 91.4812
rwrist 30.3468
rhand -32.1894 4.5707
rfingers 7.12502
rthumb -5.43157 -25.3397
lclavicle -9.54166e-015 -6.55989e-015
lhumerus -0.283743 -2.65542 68.261
lradius 77.3804
lwrist -13.2876
lhand -29.3325 22.6107
lfingers 7.12502
lthumb -2.67283 52.5737
rfemur -48.9454 -3.17584 9.80369
rtibia 32.937
rfoot -11.1705 -12.1235
rtoes 2.79055
lfemur -48.9477 5.06893 -12.8107
ltibia 32.2577
lfoot -5.9882 4.89408
ltoes -24.1891
1898
root -1.59849 17.4948 -3.22561 29.7338 1.60248 -1.08879
lowerback 24.9239 0.29777 -0.726423
upperback 7.69059 0.478353 3.55356
thorax -5.38541 0.202483 4.16165
lowerneck -24.115 -2.00377 -10.2622
upperneck 32.6651 0.291877 3.1517
head 15.5944 -0.707422 3.17125
rclavicle 1.27222e-014 4.57205e-015
rhumerus 3.807 9.01557 -55.3139
rradius 89.6059
rwrist 30.1506
rhand -32.3497 4.53267
rfingers 7.12502
rthumb -5.58641 -25.3737
lclavicle 1.27222e-014 4.57205e-015
lhumerus 1.56447 -3.58614 67.8729
lradius 75.7727
lwrist -12.7719
lhand -28.893 22.9263
lfingers 7.12502
lthumb -2.24833 52.8942
rfemur -51.449 -3.09906 10.295
rtibia 33.0489
rfoot -10.5434 -12.0215
rtoes 3.13596
lfemur -51.1939 5.62636 -12.4419
ltibia 32.5126
lfoot -5.55853 5.29827
ltoes -23.9968
1899
root -1.59731 17.4765 -3.28611 30.7145 1.80489 -1.12551
lowerback 25.5989 0.222157 -0.497202
upperback 7.77141 0.44678 3.58836
thorax -5.62659 0.188847 4.0861
lowerneck -24.1755 -1.98332 -10.0562
upperneck 32.2538 0.335881 2.87907
head 15.4109 -0.687463 3.01551
rclavicle 1.19271e-015 -1.39149e-015
rhumerus 5.7341 9.49446 -54.7444
rradius 87.7009
rwrist 29.7175
rhand -32.2779 4.66487
rfingers 7.12502
rthumb -5.51708 -25.2433
lclavicle 1.19271e-015 -1.39149e-015
lhumerus 3.24328 -4.32876 67.5467
lradius 74.183
lwrist -12.2591
lhand -28.5875 23.2403
lfingers 7.12502
lthumb -1.95334 53.2111
rfemur -52.7821 -3.53735 10.513
rtibia 33.1791
rfoot -10.3085 -11.9984
rtoes 3.41419
lfemur -52.7095 5.71411 -12.4925
ltibia 32.7488
lfoot -5.29287 5.12541
ltoes -23.9018
